<svg id="visual" viewBox="0 0 900 675" width="900" height="675" xmlns="http://www.w3.org/2000/svg" xmlns:xlink="http://www.w3.org/1999/xlink" version="1.1"><rect width="900" height="675" fill="#FFFFFC"></rect><g><g transform="translate(621 336)"><path d="M0 -100.3L86.9 -50.2L86.9 50.2L0 100.3L-86.9 50.2L-86.9 -50.2Z" stroke="#44BBA4" fill="none" stroke-width="2"></path></g><g transform="translate(410 564)"><path d="M0 -91L78.8 -45.5L78.8 45.5L0 91L-78.8 45.5L-78.8 -45.5Z" stroke="#44BBA4" fill="none" stroke-width="2"></path></g><g transform="translate(773 137)"><path d="M0 -59L51.1 -29.5L51.1 29.5L0 59L-51.1 29.5L-51.1 -29.5Z" stroke="#44BBA4" fill="none" stroke-width="2"></path></g><g transform="translate(165 413)"><path d="M0 -87L75.3 -43.5L75.3 43.5L0 87L-75.3 43.5L-75.3 -43.5Z" stroke="#44BBA4" fill="none" stroke-width="2"></path></g></g></svg>